# xmcd
#
# Track frame offsets:
# 150
# 15266
# 32195
# 43326
# 69726
# 94693
# 112862
# 124904
# 136487
# 160930
#
# Disc length: 2315 seconds
#
#
# Revision: 0
# Processed by: cddbd v1.5.1PL0 Copyright (c) Steve Scherf et al.
# Submitted via: FreeRIP 2.91 
#
DISCID=8309090a
DTITLE=Josh White - Empty Bed Blues
DYEAR=1900
DGENRE=Blues
TTITLE0=Empty Bed Blues
TTITLE1=Mother On That Train
TTITLE2=Bottle Up and Go
TTITLE3=Backwater Blues
TTITLE4=Baby Baby Blues
TTITLE5=Lord Have Mercy
TTITLE6=Home In That Rock
TTITLE7=Paul and Silas
TTITLE8=His Eye On the Sparrow
TTITLE9=That Suits Me
EXTD=
EXTT0=
EXTT1=
EXTT2=
EXTT3=
EXTT4=
EXTT5=
EXTT6=
EXTT7=
EXTT8=
EXTT9=
PLAYORDER=
